<svg width="96" height="96" viewBox="0 0 96 96" fill="none" xmlns="http://www.w3.org/2000/svg">
<path d="M68.0543 17.3537C68.7223 15.5484 71.2756 15.5484 71.9436 17.3537C74.2502 23.5872 78.9448 28.6117 84.9454 31.3513L85.9251 33.9997L84.9454 36.6475C78.9447 39.3871 74.2502 44.4121 71.9436 50.6457C71.2965 52.3946 68.8796 52.4494 68.1219 50.8098L68.0543 50.6457C65.6128 44.0475 60.4967 38.8015 53.9871 36.1888L53.3529 35.9444C51.5476 35.2763 51.5476 32.7231 53.3529 32.0551C60.1639 29.5348 65.534 24.1647 68.0543 17.3537ZM69.999 26.4562C67.9413 29.3887 65.3879 31.942 62.4554 33.9997C65.3878 36.0573 67.9413 38.6102 69.999 41.5426C72.0565 38.6104 74.6096 36.0572 77.5418 33.9997C74.6095 31.9421 72.0565 29.3886 69.999 26.4562ZM84.9454 31.3513C85.5013 31.6051 86.0675 31.8414 86.645 32.0551C88.4503 32.7231 88.4503 35.2763 86.645 35.9444C86.0676 36.158 85.5013 36.3937 84.9454 36.6475L85.9251 33.9997L84.9454 31.3513Z" fill="#222222"/>
<path d="M15.9989 40.0002C15.7607 40.0002 15.5225 40.1199 15.4034 40.3992L15.1255 41.1574C14.0932 43.9105 11.9493 46.105 9.17016 47.1424L8.41582 47.4217C7.85999 47.6212 7.85999 48.3793 8.41582 48.5788L9.17016 48.8581C11.9096 49.8955 14.0932 52.0501 15.1255 54.8431L15.4034 55.6012C15.5225 55.8805 15.7607 56.0002 15.9989 56.0002C16.2372 56.0002 16.4754 55.8805 16.5945 55.6012L16.8724 54.8431C17.9047 52.09 20.0486 49.8955 22.8277 48.8581L23.5821 48.5788C24.1379 48.3793 24.1379 47.6212 23.5821 47.4217L22.8277 47.1424C20.0883 46.105 17.9047 43.9504 16.8724 41.1574L16.5945 40.3992C16.4754 40.1199 16.2372 40.0002 15.9989 40.0002Z" fill="#222222"/>
<path d="M47.9956 56.9998C61.7101 56.9998 73.7689 64.0811 80.7177 74.7727C82.537 77.5719 82.2958 80.752 80.7485 83.1379C79.2408 85.4628 76.5402 86.9997 73.4628 86.9998H22.5284C19.451 86.9997 16.7504 85.4628 15.2427 83.1379C13.6954 80.752 13.4542 77.5719 15.2735 74.7727C22.2224 64.0811 34.2811 56.9998 47.9956 56.9998ZM47.9956 62.9998C36.3966 62.9998 26.1929 68.9816 20.3039 78.0426C19.8667 78.7153 19.9249 79.3314 20.2764 79.8734C20.6675 80.4765 21.465 80.9997 22.5284 80.9998H73.4628C74.5262 80.9997 75.3237 80.4765 75.7148 79.8734C76.0662 79.3314 76.1245 78.7153 75.6873 78.0426C69.7984 68.9816 59.5945 62.9998 47.9956 62.9998Z" fill="#222222"/>
<path d="M28.9976 31.9995C28.9977 21.5063 37.5042 12.9999 47.9974 12.9998C51.4531 12.9998 54.7019 13.9253 57.4996 15.5437C58.9338 16.3734 59.4241 18.2084 58.5945 19.6426C57.7648 21.0767 55.9298 21.5664 54.4956 20.7368C52.5865 19.6325 50.3702 18.9998 47.9974 18.9998C40.8179 18.9999 34.9977 24.82 34.9976 31.9995C34.9976 39.1792 40.8178 44.9999 47.9974 45C49.1242 45 50.2136 44.8569 51.2499 44.5902C52.8543 44.1772 54.4897 45.1433 54.9028 46.7477C55.3157 48.3523 54.3497 49.9883 52.7452 50.4013C51.2245 50.7927 49.6329 51 47.9974 51C37.5041 50.9999 28.9976 42.4929 28.9976 31.9995Z" fill="#222222"/>
</svg>
