<svg width="88" height="88" viewBox="0 0 88 88" fill="none" xmlns="http://www.w3.org/2000/svg">
<path d="M73.3334 40.3333C72.2945 40.3333 71.4237 39.9819 70.7209 39.2792C70.0181 38.5764 69.6667 37.7056 69.6667 36.6667C69.6667 35.6278 70.0181 34.7569 70.7209 34.0542C71.4237 33.3514 72.2945 33 73.3334 33C74.3723 33 75.2431 33.3514 75.9459 34.0542C76.6487 34.7569 77.0001 35.6278 77.0001 36.6667C77.0001 37.7056 76.6487 38.5764 75.9459 39.2792C75.2431 39.9819 74.3723 40.3333 73.3334 40.3333ZM69.6667 29.3333V11H77.0001V29.3333H69.6667ZM33.0001 44C28.9667 44 25.514 42.5639 22.6417 39.6917C19.7695 36.8194 18.3334 33.3667 18.3334 29.3333C18.3334 25.3 19.7695 21.8472 22.6417 18.975C25.514 16.1028 28.9667 14.6667 33.0001 14.6667C37.0334 14.6667 40.4862 16.1028 43.3584 18.975C46.2306 21.8472 47.6667 25.3 47.6667 29.3333C47.6667 33.3667 46.2306 36.8194 43.3584 39.6917C40.4862 42.5639 37.0334 44 33.0001 44ZM3.66675 73.3333V63.0667C3.66675 60.9889 4.20147 59.0792 5.27091 57.3375C6.34036 55.5958 7.76119 54.2667 9.53341 53.35C13.3223 51.4556 17.1723 50.0347 21.0834 49.0875C24.9945 48.1403 28.9667 47.6667 33.0001 47.6667C37.0334 47.6667 41.0056 48.1403 44.9167 49.0875C48.8279 50.0347 52.6779 51.4556 56.4668 53.35C58.239 54.2667 59.6598 55.5958 60.7292 57.3375C61.7987 59.0792 62.3334 60.9889 62.3334 63.0667V73.3333H3.66675ZM11.0001 66H55.0001V63.0667C55.0001 62.3944 54.832 61.7833 54.4959 61.2333C54.1598 60.6833 53.7167 60.2556 53.1667 59.95C49.8667 58.3 46.5362 57.0625 43.1751 56.2375C39.814 55.4125 36.4223 55 33.0001 55C29.5779 55 26.1862 55.4125 22.8251 56.2375C19.464 57.0625 16.1334 58.3 12.8334 59.95C12.2834 60.2556 11.8404 60.6833 11.5042 61.2333C11.1681 61.7833 11.0001 62.3944 11.0001 63.0667V66ZM33.0001 36.6667C35.0167 36.6667 36.7431 35.9486 38.1793 34.5125C39.6154 33.0764 40.3334 31.35 40.3334 29.3333C40.3334 27.3167 39.6154 25.5903 38.1793 24.1542C36.7431 22.7181 35.0167 22 33.0001 22C30.9834 22 29.257 22.7181 27.8209 24.1542C26.3848 25.5903 25.6667 27.3167 25.6667 29.3333C25.6667 31.35 26.3848 33.0764 27.8209 34.5125C29.257 35.9486 30.9834 36.6667 33.0001 36.6667Z" fill="black"/>
</svg>
